mtllib ./duckling.mtl
v 5.426677 26.193773 14.054982
v 6.780116 26.493269 14.869078
v 5.484874 28.027967 13.283459
v 6.838315 28.32746 14.097551
v 6.097208 28.348337 12.147585
v 7.450649 28.64783 12.961679
v 7.07789 27.057684 10.992001
v 8.431331 27.357178 11.806097
v -5.426673 26.193773 14.054982
v -6.780117 26.49327 14.869078
v -5.484878 28.027967 13.283461
v -6.838318 28.327461 14.097554
v -6.09721 28.34834 12.147585
v -7.450652 28.64783 12.961681
v -7.077891 27.057686 10.992002
v -8.431333 27.357174 11.806097
v 10.917655 -0.953635 12.524752
v 12.697123 10.051836 1.548552
v 10.045231 -4.231829 -22.707088
v 13.130298 -18.87841 -13.765623
v 13.56106 9.352541 -9.597925
v 0.0 -5.180333 -28.87266
v 13.56106 -15.519233 -23.080807
v 0.0 -24.465948 -16.539312
v 14.738832 -14.966372 0.700688
v 0.0 -0.005133 18.690321
v 13.56106 8.727398 12.684288
v 0.0 12.929141 18.430952
v 0.0 12.334779 -11.778422
v 0.0 -19.720978 -28.82747
v 0.0 -17.94861 2.881187
v 18.081413 -2.914006 -5.840807
v 5.654193 15.195021 10.484423
v 0.0 15.465482 11.852151
v 7.25782 15.810761 5.066083
v 0.0 16.547665 -1.418455
v 5.654193 16.427076 -0.357488
v 5.13237 24.013912 17.27396
v 0.0 24.42406 22.542412
v 10.432805 24.934177 9.17565
v 0.0 26.035566 -0.516209
v 8.127659 25.771303 2.329916
v 4.49942 29.340887 18.022566
v 0.0 31.846563 20.5253
v 7.716063 31.702044 11.108802
v 0.0 35.565826 12.763897
v 0.0 34.113125 4.52892
v 6.011187 31.795147 5.281593
v 4.383519 19.604467 15.390179
v 9.449874 20.372469 7.880928
v 7.361911 21.09919 1.064648
v 0.0 21.291616 -1.105959
v 0.0 19.50226 18.4718
v -10.917655 -0.953635 12.524752
v -12.697123 10.051836 1.548552
v -10.045231 -4.231829 -22.707088
v -13.130298 -18.87841 -13.765623
v -13.56106 9.352541 -9.597925
v -13.56106 -15.519233 -23.080807
v -14.738832 -14.966372 0.700688
v -13.56106 8.727398 12.684288
v -18.081413 -2.914006 -5.840807
v -5.654193 15.195021 10.484423
v -7.25782 15.810761 5.066083
v -5.654193 16.427076 -0.357488
v -5.13237 24.013912 17.27396
v -10.432805 24.934177 9.17565
v -8.127659 25.771303 2.329916
v -4.49942 29.340887 18.022566
v -7.716063 31.702044 11.108802
v -6.011187 31.795147 5.281593
v -4.383519 19.604467 15.390179
v -9.449874 20.372469 7.880928
v -7.361911 21.09919 1.064648
v -5.317311 20.388674 17.138796
v -3.28628 18.773502 16.378412
v 3.286279 18.773502 16.378412
v 5.317311 20.388674 17.138796
v 0.0 26.833136 18.204422
v -2.929836 17.938541 24.771774
v -1.810739 16.923298 23.7818
v 1.810739 16.923298 23.7818
v 2.929836 17.938541 24.771774
v 0.0 21.364147 24.78793
v -0.996456 17.168718 28.53773
v -0.615843 16.126991 27.995796
v 0.615842 16.126991 27.995796
v 0.996456 17.168718 28.53773
v 0.0 17.81254 28.87266
v 13.378973 -20.195246 -15.283067
v 11.105306 -20.675957 -15.283067
v 9.968472 -20.916307 -13.270485
v 11.105306 -20.675957 -11.257904
v 13.378973 -20.195246 -11.257904
v 14.515807 -19.954895 -13.270485
v 11.842798 -13.46289 -15.283067
v 9.678642 -14.309692 -15.283067
v 8.596567 -14.733093 -13.270485
v 9.678642 -14.309692 -11.257904
v 11.842798 -13.46289 -11.257904
v 12.924875 -13.039487 -13.270485
v 14.730021 -31.366205 -8.857327
v 13.568055 -31.366205 -10.869907
v 13.568055 -31.366205 -6.844745
v 11.244128 -31.366205 -6.844745
v 10.082163 -31.366205 -8.857327
v 11.244128 -31.366205 -10.869907
v 14.730021 -35.565826 -8.857327
v 13.568055 -33.916065 -10.869907
v 13.568055 -35.565826 -6.844745
v 11.244128 -35.565826 -6.844745
v 10.082163 -35.565826 -8.857327
v 11.244128 -33.916065 -10.869907
v 16.22105 -34.294964 6.499885
v 20.036009 -34.294964 2.955598
v 16.22105 -35.565826 6.499885
v 20.036009 -35.565826 2.955598
v 8.591133 -34.294964 6.499885
v 8.591133 -35.565826 6.499885
v 4.776174 -34.294964 2.955598
v 4.776174 -35.565826 2.955598
v -13.378973 -20.195246 -15.283067
v -11.105305 -20.675957 -15.283067
v -9.968472 -20.916307 -13.270485
v -11.105305 -20.675957 -11.257904
v -13.378973 -20.195246 -11.257904
v -14.515807 -19.954895 -13.270485
v -11.842798 -13.46289 -15.283067
v -9.678642 -14.309692 -15.283067
v -8.596565 -14.733093 -13.270485
v -9.678642 -14.309692 -11.257904
v -11.842798 -13.46289 -11.257904
v -12.924874 -13.039487 -13.270485
v -14.730021 -31.366205 -8.857327
v -13.568055 -31.366205 -10.869907
v -13.568055 -31.366205 -6.844745
v -11.244125 -31.366205 -6.844745
v -10.082162 -31.366205 -8.857327
v -11.244125 -31.366205 -10.869907
v -14.730021 -35.565826 -8.857327
v -13.568055 -33.916065 -10.869907
v -13.568055 -35.565826 -6.844745
v -11.244125 -35.565826 -6.844745
v -10.082162 -35.565826 -8.857327
v -11.244125 -33.916065 -10.869907
v -16.22105 -34.294964 6.499885
v -20.036009 -34.294964 2.955598
v -16.22105 -35.565826 6.499885
v -20.036009 -35.565826 2.955598
v -8.591133 -34.294964 6.499885
v -8.591133 -35.565826 6.499885
v -4.776173 -34.294964 2.955598
v -4.776173 -35.565826 2.955598
vt 0.536453 0.073539
vt 0.704410 0.073539
vt 0.704410 0.241497
vt 0.536453 0.241497
vt 0.707305 0.241497
vt 0.707305 0.073539
vt 0.769590 0.073539
vt 0.769590 0.241497
vt 0.772478 0.073539
vt 0.940435 0.073539
vt 0.940435 0.241497
vt 0.772478 0.241497
vt 0.790099 0.243187
vt 0.958057 0.243187
vt 0.958057 0.411144
vt 0.790099 0.411144
vt 0.619545 0.243187
vt 0.787502 0.243187
vt 0.734666 0.411144
vt 0.672381 0.411144
vt 0.369189 0.857932
vt 0.434684 0.852242
vt 0.450542 0.910319
vt 0.369189 0.935526
vt 0.083709 0.774623
vt 0.110701 0.789637
vt 0.129998 0.831113
vt 0.083709 0.821184
vt 0.119770 0.866071
vt 0.083709 0.870586
vt 0.248814 0.558521
vt 0.330168 0.576412
vt 0.309076 0.657906
vt 0.248814 0.663596
vt 0.330168 0.725620
vt 0.248814 0.750826
vt 0.333251 0.558521
vt 0.414605 0.592996
vt 0.398747 0.648879
vt 0.333251 0.632239
vt 0.421670 0.735663
vt 0.333251 0.748744
vt 0.369189 0.750288
vt 0.457608 0.768179
vt 0.179859 0.772122
vt 0.095795 0.701188
vt 0.168098 0.661945
vt 0.237936 0.773079
vt 0.072327 0.614404
vt 0.092479 0.558521
vt 0.160192 0.560763
vt 0.241686 0.639406
vt 0.245881 0.706275
vt 0.285462 0.752370
vt 0.366815 0.786845
vt 0.319381 0.800042
vt 0.285462 0.791837
vt 0.361633 0.853649
vt 0.329002 0.832547
vt 0.366815 0.920517
vt 0.319381 0.865083
vt 0.285462 0.933598
vt 0.285462 0.871448
vt 0.072327 0.872130
vt 0.098624 0.872743
vt 0.103116 0.899196
vt 0.072327 0.901656
vt 0.209956 0.869094
vt 0.214563 0.824046
vt 0.241929 0.831813
vt 0.236408 0.880395
vt 0.218923 0.783154
vt 0.246951 0.790745
vt 0.176536 0.852694
vt 0.132371 0.851540
vt 0.132371 0.823081
vt 0.181130 0.824666
vt 0.099319 0.931153
vt 0.072327 0.946185
vt 0.282530 0.843410
vt 0.268365 0.884886
vt 0.283088 0.808452
vt 0.132371 0.774623
vt 0.168433 0.788529
vt 0.183503 0.839664
vt 0.187197 0.807159
vt 0.190894 0.774623
vt 0.166291 0.880723
vt 0.132371 0.879999
vt 0.105574 0.890472
vt 0.139493 0.882267
vt 0.131871 0.911697
vt 0.105574 0.930184
vt 0.565192 0.603481
vt 0.598151 0.597238
vt 0.622096 0.721044
vt 0.603935 0.733071
vt 0.704809 0.597238
vt 0.680865 0.721044
vt 0.737769 0.603481
vt 0.699025 0.733071
vt 0.808208 0.777456
vt 0.914024 0.771213
vt 0.851075 0.895019
vt 0.796800 0.907046
vt 0.794652 0.927824
vt 0.688836 0.921581
vt 0.677428 0.791991
vt 0.731702 0.804018
vt 0.845815 0.769815
vt 0.740000 0.683527
vt 0.845815 0.597238
vt 0.874105 0.630197
vt 0.874105 0.736856
vt 0.606898 0.920819
vt 0.588468 0.914643
vt 0.588468 0.894655
vt 0.606898 0.888478
vt 0.618289 0.904649
vt 0.594428 0.854354
vt 0.574810 0.866381
vt 0.577317 0.796832
vt 0.595748 0.791991
vt 0.661474 0.790593
vt 0.641487 0.790593
vt 0.565192 0.867779
vt 0.584810 0.879807
vt 0.586130 0.942170
vt 0.567699 0.937329
vt 0.663252 0.791991
vt 0.675280 0.839536
vt 0.597896 0.839536
vt 0.600889 0.823365
vt 0.663252 0.887081
vt 0.600889 0.855706
vt 0.285484 0.289863
vt 0.266142 0.293953
vt 0.257962 0.255267
vt 0.277305 0.251177
vt 0.178591 0.249738
vt 0.176546 0.232616
vt 0.215232 0.232616
vt 0.217277 0.249738
vt 0.178591 0.215494
vt 0.217277 0.215494
vt 0.079077 0.323438
vt 0.098420 0.327527
vt 0.090241 0.366213
vt 0.070898 0.362124
vt 0.331753 0.128818
vt 0.333797 0.111696
vt 0.372483 0.111696
vt 0.370438 0.128818
vt 0.331753 0.094574
vt 0.370438 0.094574
vt 0.374764 0.251177
vt 0.384650 0.268299
vt 0.374764 0.285421
vt 0.354994 0.285421
vt 0.345108 0.268299
vt 0.354994 0.251177
vt 0.104846 0.377324
vt 0.104846 0.396667
vt 0.087724 0.406339
vt 0.070603 0.396667
vt 0.070603 0.377324
vt 0.087724 0.367653
vt 0.255402 0.149241
vt 0.255402 0.132119
vt 0.255402 0.166362
vt 0.090921 0.251177
vt 0.110692 0.251177
vt 0.106330 0.195071
vt 0.106330 0.177950
vt 0.106330 0.212193
vt 0.297756 0.366213
vt 0.277985 0.366213
vt 0.219675 0.149241
vt 0.233710 0.132119
vt 0.123716 0.251177
vt 0.123716 0.283632
vt 0.112904 0.283632
vt 0.112904 0.251177
vt 0.123716 0.348543
vt 0.112904 0.348543
vt 0.123716 0.380998
vt 0.112904 0.380998
vt 0.084638 0.212193
vt 0.070603 0.195071
vt 0.297756 0.387906
vt 0.277985 0.387906
vt 0.210610 0.381827
vt 0.200724 0.364705
vt 0.223295 0.251177
vt 0.255750 0.281330
vt 0.429790 0.368796
vt 0.397334 0.398949
vt 0.230486 0.249738
vt 0.219675 0.249738
vt 0.180954 0.364705
vt 0.158384 0.251177
vt 0.332424 0.398949
vt 0.171069 0.381827
vt 0.125929 0.281330
vt 0.070603 0.094574
vt 0.081414 0.094574
vt 0.299968 0.368796
vn -0.321211 -0.581067 0.747787
vn 0.643961 -0.650256 0.403091
vn -0.441069 0.778247 0.446979
vn -0.272872 0.570244 0.774831
vn 0.103457 0.865363 -0.490351
vn 0.602468 0.760081 0.243534
vn 0.392016 -0.856096 -0.336783
vn 0.975293 0.040404 -0.217191
vn 0.321210 -0.581068 0.747786
vn -0.643959 -0.650257 0.403091
vn 0.441069 0.778247 0.446978
vn 0.272872 0.570244 0.774831
vn -0.103459 0.865363 -0.490350
vn -0.602470 0.760080 0.243533
vn -0.392015 -0.856097 -0.336783
vn -0.975293 0.040403 -0.217191
vn 0.616620 -0.410135 0.671989
vn 0.705256 0.708895 -0.009056
vn 0.602828 0.454042 -0.656082
vn 0.507458 -0.853859 -0.115808
vn 0.689104 0.612012 -0.388044
vn 0.000000 0.372361 -0.928088
vn 0.844503 -0.163215 -0.510073
vn -0.000000 -0.992846 0.119401
vn 0.682505 -0.635099 0.361714
vn 0.000000 -0.363538 0.931579
vn 0.835752 0.266839 0.479911
vn 0.000000 0.428988 0.903310
vn 0.000000 0.748138 -0.663543
vn -0.000000 -0.692104 -0.721797
vn 0.000000 -0.774743 0.632276
vn 0.998657 0.041891 -0.030490
vn 0.667632 0.440213 0.600400
vn 0.000000 -0.300186 0.953881
vn 0.891414 0.453110 -0.008488
vn 0.000000 0.855133 -0.518409
vn 0.594473 0.675802 -0.435768
vn 0.787840 -0.136152 0.600642
vn 0.000000 -0.142273 0.989828
vn 0.978155 0.073645 0.194395
vn 0.000000 0.359477 -0.933154
vn 0.642917 0.339177 -0.686744
vn 0.738400 0.219096 0.637779
vn -0.000000 0.751521 0.659709
vn 0.760098 0.573379 0.305758
vn -0.000000 0.996002 0.089330
vn 0.000000 0.720603 -0.693348
vn 0.625329 0.713929 -0.315068
vn 0.637123 -0.500434 0.586208
vn 0.951144 -0.294970 0.091201
vn 0.676486 0.003128 -0.736449
vn 0.000000 0.132250 -0.991216
vn 0.000000 -0.697045 0.717027
vn -0.616620 -0.410135 0.671989
vn -0.705256 0.708895 -0.009056
vn -0.602828 0.454042 -0.656082
vn -0.507458 -0.853859 -0.115808
vn -0.689104 0.612012 -0.388044
vn -0.844503 -0.163215 -0.510073
vn -0.682505 -0.635099 0.361714
vn -0.835752 0.266839 0.479911
vn -0.998657 0.041891 -0.030490
vn -0.667632 0.440213 0.600400
vn -0.891414 0.453110 -0.008488
vn -0.594473 0.675802 -0.435768
vn -0.787840 -0.136152 0.600642
vn -0.978155 0.073645 0.194395
vn -0.642917 0.339177 -0.686744
vn -0.738400 0.219096 0.637779
vn -0.760098 0.573379 0.305758
vn -0.625329 0.713929 -0.315068
vn -0.637123 -0.500434 0.586208
vn -0.951144 -0.294970 0.091201
vn -0.676486 0.003128 -0.736449
vn -0.694334 0.326200 -0.641478
vn -0.143819 -0.932252 -0.331997
vn 0.298660 -0.794740 -0.528384
vn 0.771886 0.517577 -0.369196
vn -0.244642 0.968495 0.046554
vn -0.823306 0.377621 0.423757
vn -0.332609 -0.932798 -0.138780
vn 0.166997 -0.969289 -0.180528
vn 0.932544 0.055194 0.356812
vn 0.346507 0.731267 0.587521
vn -0.702293 0.339153 0.625907
vn -0.546115 -0.826571 0.136156
vn 0.193437 -0.980957 0.017501
vn 0.763934 -0.443751 0.468498
vn 0.455045 0.651055 0.607505
vn 0.559971 -0.146572 -0.815444
vn -0.407596 -0.291918 -0.865245
vn -0.989087 -0.139247 -0.048135
vn -0.549908 0.157807 0.820181
vn 0.421814 0.288449 0.859576
vn 0.988699 0.142868 0.045427
vn 0.353719 0.665246 -0.657518
vn -0.352392 0.036030 -0.935159
vn -0.979047 0.106864 -0.173342
vn -0.707013 0.259886 0.657717
vn 0.196112 0.375605 0.905793
vn 0.927390 0.323715 0.187503
vn 0.861361 0.484806 -0.151724
vn 0.426239 -0.279458 -0.860362
vn 0.250605 0.871635 0.421247
vn -0.236348 0.834198 0.498250
vn -0.972359 0.187524 -0.139111
vn -0.569325 -0.255356 -0.781449
vn 0.839456 -0.326003 -0.434782
vn 0.132222 -0.723037 -0.678037
vn -0.025554 -0.998693 -0.044261
vn 0.019247 -0.999259 -0.033336
vn -0.465465 -0.839653 -0.279865
vn -0.597860 -0.205850 -0.774719
vn 0.105261 0.944944 0.309841
vn 0.793690 0.603423 -0.077059
vn 0.046359 -0.993927 0.099799
vn 0.224444 -0.974243 -0.021791
vn -0.095469 0.951011 0.294048
vn -0.023939 -0.991377 0.128836
vn -0.385529 0.912529 0.136597
vn -0.740964 -0.642755 -0.194519
vn -0.559970 -0.146572 -0.815444
vn 0.407596 -0.291918 -0.865245
vn 0.989087 -0.139247 -0.048135
vn 0.549909 0.157807 0.820181
vn -0.421814 0.288449 0.859576
vn -0.988699 0.142868 0.045427
vn -0.353719 0.665246 -0.657518
vn 0.352392 0.036030 -0.935159
vn 0.979047 0.106864 -0.173342
vn 0.707013 0.259886 0.657717
vn -0.196112 0.375605 0.905793
vn -0.927390 0.323715 0.187503
vn -0.861361 0.484806 -0.151724
vn -0.426239 -0.279458 -0.860362
vn -0.250605 0.871635 0.421247
vn 0.236348 0.834198 0.498250
vn 0.972359 0.187524 -0.139112
vn 0.569325 -0.255356 -0.781449
vn -0.839456 -0.326003 -0.434782
vn -0.132222 -0.723037 -0.678037
vn 0.025554 -0.998693 -0.044261
vn -0.019247 -0.999259 -0.033336
vn 0.465465 -0.839653 -0.279865
vn 0.597860 -0.205850 -0.774719
vn -0.105261 0.944944 0.309841
vn -0.793690 0.603423 -0.077059
vn -0.046359 -0.993927 0.099799
vn -0.224444 -0.974243 -0.021791
vn 0.095469 0.951011 0.294048
vn 0.023939 -0.991377 0.128836
vn 0.385529 0.912529 0.136597
vn 0.740964 -0.642755 -0.194519
usemtl material_0
f 1/1/1 2/2/2 4/3/4 
f 1/1/1 4/3/4 3/4/3 
f 3/5/3 4/6/4 6/7/6 
f 3/5/3 6/7/6 5/8/5 
f 5/9/5 6/10/6 8/11/8 
f 5/9/5 8/11/8 7/12/7 
f 7/13/7 8/14/8 2/15/2 
f 7/13/7 2/15/2 1/16/1 
f 2/17/2 8/18/8 6/19/6 
f 2/17/2 6/19/6 4/20/4 
f 9/1/9 11/4/11 12/3/12 
f 9/1/9 12/3/12 10/2/10 
f 11/5/11 13/8/13 14/7/14 
f 11/5/11 14/7/14 12/6/12 
f 13/9/13 15/12/15 16/11/16 
f 13/9/13 16/11/16 14/10/14 
f 15/13/15 9/16/9 10/15/10 
f 15/13/15 10/15/10 16/14/16 
f 10/17/10 12/20/12 14/19/14 
f 10/17/10 14/19/14 16/18/16 
f 26/21/26 17/22/17 27/23/27 
f 26/21/26 27/23/27 28/24/28 
f 44/25/44 43/26/43 45/27/45 
f 44/25/44 45/27/45 46/28/46 
f 46/28/46 45/27/45 48/29/48 
f 46/28/46 48/29/48 47/30/47 
f 29/31/29 21/32/21 19/33/19 
f 29/31/29 19/33/19 22/34/22 
f 22/34/22 19/33/19 23/35/23 
f 22/34/22 23/35/23 30/36/30 
f 30/37/30 23/38/23 20/39/20 
f 30/37/30 20/39/20 24/40/24 
f 24/40/24 20/39/20 25/41/25 
f 24/40/24 25/41/25 31/42/31 
f 31/43/31 25/44/25 17/22/17 
f 31/43/31 17/22/17 26/21/26 
f 17/45/17 25/46/25 32/47/32 
f 17/45/17 32/47/32 27/48/27 
f 25/46/25 20/49/20 23/50/23 
f 25/46/25 23/50/23 32/47/32 
f 32/47/32 23/50/23 19/51/19 
f 32/47/32 19/51/19 21/52/21 
f 27/48/27 32/47/32 21/52/21 
f 27/48/27 21/52/21 18/53/18 
f 28/54/28 27/55/27 33/56/33 
f 28/54/28 33/56/33 34/57/34 
f 27/55/27 18/58/18 35/59/35 
f 27/55/27 35/59/35 33/56/33 
f 18/58/18 21/60/21 37/61/37 
f 18/58/18 37/61/37 35/59/35 
f 21/60/21 29/62/29 36/63/36 
f 21/60/21 36/63/36 37/61/37 
f 53/64/53 49/65/49 38/66/38 
f 53/64/53 38/66/38 39/67/39 
f 49/68/49 50/69/50 40/70/40 
f 49/68/49 40/70/40 38/71/38 
f 50/69/50 51/72/51 42/73/42 
f 50/69/50 42/73/42 40/70/40 
f 51/74/51 52/75/52 41/76/41 
f 51/74/51 41/76/41 42/77/42 
f 39/67/39 38/66/38 43/78/43 
f 39/67/39 43/78/43 44/79/44 
f 38/71/38 40/70/40 45/80/45 
f 38/71/38 45/80/45 43/81/43 
f 40/70/40 42/73/42 48/82/48 
f 40/70/40 48/82/48 45/80/45 
f 42/77/42 41/76/41 47/83/47 
f 42/77/42 47/83/47 48/84/48 
f 33/85/33 35/86/35 50/69/50 
f 33/85/33 50/69/50 49/68/49 
f 35/86/35 37/87/37 51/72/51 
f 35/86/35 51/72/51 50/69/50 
f 37/88/37 36/89/36 52/75/52 
f 37/88/37 52/75/52 51/74/51 
f 34/90/34 33/91/33 49/92/49 
f 34/90/34 49/92/49 53/93/53 
f 26/21/26 28/24/28 61/23/61 
f 26/21/26 61/23/61 54/22/54 
f 44/25/44 46/28/46 70/27/70 
f 44/25/44 70/27/70 69/26/69 
f 46/28/46 47/30/47 71/29/71 
f 46/28/46 71/29/71 70/27/70 
f 29/31/29 22/34/22 56/33/56 
f 29/31/29 56/33/56 58/32/58 
f 22/34/22 30/36/30 59/35/59 
f 22/34/22 59/35/59 56/33/56 
f 30/37/30 24/40/24 57/39/57 
f 30/37/30 57/39/57 59/38/59 
f 24/40/24 31/42/31 60/41/60 
f 24/40/24 60/41/60 57/39/57 
f 31/43/31 26/21/26 54/22/54 
f 31/43/31 54/22/54 60/44/60 
f 54/45/54 61/48/61 62/47/62 
f 54/45/54 62/47/62 60/46/60 
f 60/46/60 62/47/62 59/50/59 
f 60/46/60 59/50/59 57/49/57 
f 62/47/62 58/52/58 56/51/56 
f 62/47/62 56/51/56 59/50/59 
f 61/48/61 55/53/55 58/52/58 
f 61/48/61 58/52/58 62/47/62 
f 28/54/28 34/57/34 63/56/63 
f 28/54/28 63/56/63 61/55/61 
f 61/55/61 63/56/63 64/59/64 
f 61/55/61 64/59/64 55/58/55 
f 55/58/55 64/59/64 65/61/65 
f 55/58/55 65/61/65 58/60/58 
f 58/60/58 65/61/65 36/63/36 
f 58/60/58 36/63/36 29/62/29 
f 53/64/53 39/67/39 66/66/66 
f 53/64/53 66/66/66 72/65/72 
f 72/68/72 66/71/66 67/70/67 
f 72/68/72 67/70/67 73/69/73 
f 73/69/73 67/70/67 68/73/68 
f 73/69/73 68/73/68 74/72/74 
f 74/74/74 68/77/68 41/76/41 
f 74/74/74 41/76/41 52/75/52 
f 39/67/39 44/79/44 69/78/69 
f 39/67/39 69/78/69 66/66/66 
f 66/71/66 69/81/69 70/80/70 
f 66/71/66 70/80/70 67/70/67 
f 67/70/67 70/80/70 71/82/71 
f 67/70/67 71/82/71 68/73/68 
f 68/77/68 71/84/71 47/83/47 
f 68/77/68 47/83/47 41/76/41 
f 63/85/63 72/68/72 73/69/73 
f 63/85/63 73/69/73 64/86/64 
f 64/86/64 73/69/73 74/72/74 
f 64/86/64 74/72/74 65/87/65 
f 65/88/65 74/74/74 52/75/52 
f 65/88/65 52/75/52 36/89/36 
f 34/90/34 53/93/53 72/92/72 
f 34/90/34 72/92/72 63/91/63 
f 75/94/75 76/95/76 81/96/81 
f 75/94/75 81/96/81 80/97/80 
f 76/95/76 77/98/77 82/99/82 
f 76/95/76 82/99/82 81/96/81 
f 77/98/77 78/100/78 83/101/83 
f 77/98/77 83/101/83 82/99/82 
f 78/102/78 79/103/79 84/104/84 
f 78/102/78 84/104/84 83/105/83 
f 79/106/79 75/107/75 80/108/80 
f 79/106/79 80/108/80 84/109/84 
f 75/110/75 79/111/79 78/112/78 
f 75/110/75 78/112/78 77/113/77 
f 75/110/75 77/113/77 76/114/76 
f 85/115/85 86/116/86 87/117/87 
f 85/115/85 87/117/87 88/118/88 
f 85/115/85 88/118/88 89/119/89 
f 80/120/80 81/121/81 86/122/86 
f 80/120/80 86/122/86 85/123/85 
f 81/96/81 82/99/82 87/124/87 
f 81/96/81 87/124/87 86/125/86 
f 82/126/82 83/127/83 88/128/88 
f 82/126/82 88/128/88 87/129/87 
f 83/130/83 84/131/84 89/132/89 
f 83/130/83 89/132/89 88/133/88 
f 84/131/84 80/134/80 85/135/85 
f 84/131/84 85/135/85 89/132/89 
f 90/136/90 91/137/91 97/138/97 
f 90/136/90 97/138/97 96/139/96 
f 91/140/91 92/141/92 98/142/98 
f 91/140/91 98/142/98 97/143/97 
f 92/141/92 93/144/93 99/145/99 
f 92/141/92 99/145/99 98/142/98 
f 93/146/93 94/147/94 100/148/100 
f 93/146/93 100/148/100 99/149/99 
f 94/150/94 95/151/95 101/152/101 
f 94/150/94 101/152/101 100/153/100 
f 95/151/95 90/154/90 96/155/96 
f 95/151/95 96/155/96 101/152/101 
f 109/156/109 108/157/108 110/158/110 
f 109/156/109 110/158/110 111/159/111 
f 109/156/109 111/159/111 112/160/112 
f 109/156/109 112/160/112 113/161/113 
f 96/162/96 97/163/97 98/164/98 
f 96/162/96 98/164/98 99/165/99 
f 96/162/96 99/165/99 100/166/100 
f 96/162/96 100/166/100 101/167/101 
f 90/154/90 95/151/95 102/168/102 
f 90/154/90 102/168/102 103/169/103 
f 95/151/95 94/150/94 104/170/104 
f 95/151/95 104/170/104 102/168/102 
f 94/147/94 93/146/93 105/171/105 
f 94/147/94 105/171/105 104/172/104 
f 93/144/93 92/141/92 106/173/106 
f 93/144/93 106/173/106 105/174/105 
f 92/141/92 91/140/91 107/175/107 
f 92/141/92 107/175/107 106/173/106 
f 91/137/91 90/136/90 103/176/103 
f 91/137/91 103/176/103 107/177/107 
f 103/169/103 102/168/102 108/178/108 
f 103/169/103 108/178/108 109/179/109 
f 115/180/115 114/181/114 116/182/116 
f 115/180/115 116/182/116 117/183/117 
f 114/181/114 118/184/118 119/185/119 
f 114/181/114 119/185/119 116/182/116 
f 118/184/118 120/186/120 121/187/121 
f 118/184/118 121/187/121 119/185/119 
f 106/173/106 107/175/107 113/188/113 
f 106/173/106 113/188/113 112/189/112 
f 107/177/107 103/176/103 109/190/109 
f 107/177/107 109/190/109 113/191/113 
f 102/192/102 104/193/104 114/194/114 
f 102/192/102 114/194/114 115/195/115 
f 110/158/110 108/157/108 117/196/117 
f 110/158/110 117/196/117 116/197/116 
f 108/178/108 102/168/102 115/198/115 
f 108/178/108 115/198/115 117/199/117 
f 104/193/104 105/200/105 118/201/118 
f 104/193/104 118/201/118 114/194/114 
f 111/159/111 110/158/110 116/197/116 
f 111/159/111 116/197/116 119/202/119 
f 105/200/105 106/203/106 120/204/120 
f 105/200/105 120/204/120 118/201/118 
f 106/173/106 112/189/112 121/205/121 
f 106/173/106 121/205/121 120/206/120 
f 112/160/112 111/159/111 119/202/119 
f 112/160/112 119/202/119 121/207/121 
f 122/136/122 128/139/128 129/138/129 
f 122/136/122 129/138/129 123/137/123 
f 123/140/123 129/143/129 130/142/130 
f 123/140/123 130/142/130 124/141/124 
f 124/141/124 130/142/130 131/145/131 
f 124/141/124 131/145/131 125/144/125 
f 125/146/125 131/149/131 132/148/132 
f 125/146/125 132/148/132 126/147/126 
f 126/150/126 132/153/132 133/152/133 
f 126/150/126 133/152/133 127/151/127 
f 127/151/127 133/152/133 128/155/128 
f 127/151/127 128/155/128 122/154/122 
f 141/156/141 145/161/145 144/160/144 
f 141/156/141 144/160/144 143/159/143 
f 141/156/141 143/159/143 142/158/142 
f 141/156/141 142/158/142 140/157/140 
f 128/162/128 133/167/133 132/166/132 
f 128/162/128 132/166/132 131/165/131 
f 128/162/128 131/165/131 130/164/130 
f 128/162/128 130/164/130 129/163/129 
f 122/154/122 135/169/135 134/168/134 
f 122/154/122 134/168/134 127/151/127 
f 127/151/127 134/168/134 136/170/136 
f 127/151/127 136/170/136 126/150/126 
f 126/147/126 136/172/136 137/171/137 
f 126/147/126 137/171/137 125/146/125 
f 125/144/125 137/174/137 138/173/138 
f 125/144/125 138/173/138 124/141/124 
f 124/141/124 138/173/138 139/175/139 
f 124/141/124 139/175/139 123/140/123 
f 123/137/123 139/177/139 135/176/135 
f 123/137/123 135/176/135 122/136/122 
f 135/169/135 141/179/141 140/178/140 
f 135/169/135 140/178/140 134/168/134 
f 147/180/147 149/183/149 148/182/148 
f 147/180/147 148/182/148 146/181/146 
f 146/181/146 148/182/148 151/185/151 
f 146/181/146 151/185/151 150/184/150 
f 150/184/150 151/185/151 153/187/153 
f 150/184/150 153/187/153 152/186/152 
f 138/173/138 144/189/144 145/188/145 
f 138/173/138 145/188/145 139/175/139 
f 139/177/139 145/191/145 141/190/141 
f 139/177/139 141/190/141 135/176/135 
f 134/192/134 147/195/147 146/194/146 
f 134/192/134 146/194/146 136/193/136 
f 142/158/142 148/197/148 149/196/149 
f 142/158/142 149/196/149 140/157/140 
f 140/178/140 149/199/149 147/198/147 
f 140/178/140 147/198/147 134/168/134 
f 136/193/136 146/194/146 150/201/150 
f 136/193/136 150/201/150 137/200/137 
f 143/159/143 151/202/151 148/197/148 
f 143/159/143 148/197/148 142/158/142 
f 137/200/137 150/201/150 152/204/152 
f 137/200/137 152/204/152 138/203/138 
f 138/173/138 152/206/152 153/205/153 
f 138/173/138 153/205/153 144/189/144 
f 144/160/144 153/207/153 151/202/151 
f 144/160/144 151/202/151 143/159/143 
